<?xml version="1.0" encoding="UTF-8" standalone="no"?>
<!-- Generator: Gravit.io -->

<svg
   xmlns:dc="http://purl.org/dc/elements/1.1/"
   xmlns:cc="http://creativecommons.org/ns#"
   xmlns:rdf="http://www.w3.org/1999/02/22-rdf-syntax-ns#"
   xmlns:svg="http://www.w3.org/2000/svg"
   xmlns="http://www.w3.org/2000/svg"
   xmlns:sodipodi="http://sodipodi.sourceforge.net/DTD/sodipodi-0.dtd"
   xmlns:inkscape="http://www.inkscape.org/namespaces/inkscape"
   style="isolation:isolate"
   viewBox="448 194 194 190"
   width="194"
   height="190"
   id="svg2"
   version="1.1"
   inkscape:version="0.91 r13725"
   sodipodi:docname="Bware.svg">
  <metadata
     id="metadata21">
    <rdf:RDF>
      <cc:Work
         rdf:about="">
        <dc:format>image/svg+xml</dc:format>
        <dc:type
           rdf:resource="http://purl.org/dc/dcmitype/StillImage" />
        <dc:title></dc:title>
      </cc:Work>
    </rdf:RDF>
  </metadata>
  <defs
     id="defs19" />
  <sodipodi:namedview
     pagecolor="#ffffff"
     bordercolor="#666666"
     borderopacity="1"
     objecttolerance="10"
     gridtolerance="10"
     guidetolerance="10"
     inkscape:pageopacity="0"
     inkscape:pageshadow="2"
     inkscape:window-width="774"
     inkscape:window-height="480"
     id="namedview17"
     showgrid="false"
     fit-margin-top="0"
     fit-margin-left="0"
     fit-margin-right="0"
     fit-margin-bottom="0"
     inkscape:zoom="1.0138365"
     inkscape:cx="197.33694"
     inkscape:cy="94.964721"
     inkscape:window-x="0"
     inkscape:window-y="0"
     inkscape:window-maximized="0"
     inkscape:current-layer="svg2" />
  <path
     d="m 586.58694,370.32742 -3.433,11.542 c -33.192,-23.939 -67.371,-33.776 -102.567,-29.542 l -31,5.698 4,-10.205 c 12.548,-32.769 14.546,-70.292 36,-100.532 16.936,-23.871 51.782,-43.204 73.483,-52.079 l 6.517,19.118 c 5.756,21.3 45.978,62.506 71.333,66.916 l -3.333,51.084 c -18.667,4.667 -43.994,15.855 -51,38 z"
     vector-effect="non-scaling-stroke"
     stroke-miterlimit="3"
     id="path4"
     inkscape:connector-curvature="0"
     style="fill:#4a86e8;stroke:#244375;stroke-width:2;stroke-linecap:square;stroke-linejoin:miter;stroke-miterlimit:3" />
  <g
     id="Group"
     transform="translate(-1.4130625,-1.6725801)">
    <path
       d="m 590,247 -67.227,80.206 c -22.07,18.206 -45.985,28.662 -71.773,31.339"
       vector-effect="non-scaling-stroke"
       stroke-miterlimit="3"
       id="path7"
       inkscape:connector-curvature="0"
       style="fill:none;stroke:#000000;stroke-width:2;stroke-linecap:square;stroke-linejoin:miter;stroke-miterlimit:3" />
    <path
       d="m 451,359.698 c 73.449,-16.294 124.793,-48.506 156,-96.666 l 16,12.065 q 1,56.298 -172,84.601 z"
       vector-effect="non-scaling-stroke"
       stroke-miterlimit="3"
       id="path9"
       inkscape:connector-curvature="0"
       style="fill:none;stroke:#000000;stroke-width:2;stroke-linecap:square;stroke-linejoin:miter;stroke-miterlimit:3" />
    <path
       d="M 642.333,283.833 Q 623.667,350 497,353"
       vector-effect="non-scaling-stroke"
       stroke-miterlimit="3"
       id="path11"
       inkscape:connector-curvature="0"
       style="fill:none;stroke:#000000;stroke-width:2;stroke-linecap:square;stroke-linejoin:miter;stroke-miterlimit:3" />
    <path
       d="m 639,333 q -76,29.492 -143,19.612"
       vector-effect="non-scaling-stroke"
       stroke-miterlimit="3"
       id="path13"
       inkscape:connector-curvature="0"
       style="fill:none;stroke:#000000;stroke-width:2;stroke-linecap:square;stroke-linejoin:miter;stroke-miterlimit:3" />
  </g>
  <path
     d="m 551.91794,288.53942 0,0 q 3.859,-0.971 7.468,-6.379 l 0,0 0,0 q 3.61,-5.408 3.61,-13.52 l 0,0 0,0 q 0,-8.113 -5.166,-11.857 l 0,0 0,0 q -5.165,-3.744 -15.87,-3.744 l 0,0 0,0 q -15.933,0 -26.077,6.795 l 0,0 0,0 q -10.145,6.795 -10.145,14.56 l 0,0 0,0 q 0,4.022 2.739,6.449 l 0,0 0,0 q 2.738,2.426 5.476,3.258 l 0,0 0,0 q -0.373,5.408 -3.36,10.262 l 0,0 0,0 q -4.855,-0.971 -8.962,-5.755 l 0,0 0,0 q -4.108,-4.784 -4.108,-12.411 l 0,0 0,0 q 0,-13.59 13.568,-22.534 l 0,0 0,0 q 13.567,-8.944 35.101,-8.944 l 0,0 0,0 q 16.555,0 26.264,5.824 l 0,0 0,0 q 9.709,5.824 9.709,17.889 l 0,0 0,0 q 0,9.429 -5.85,15.669 l 0,0 0,0 q -5.851,6.24 -14.937,9.43 l 0,0 0,0 q 9.086,1.525 14.439,7.627 l 0,0 0,0 q 9.958,-2.912 18.422,-2.912 l 0,0 6.099,0.416 0,0 q 0.249,0.97 0.249,1.941 l 0,0 0,0 q 0,4.854 -1.245,7.627 l 0,0 0,0 q -3.361,-0.832 -9.024,-0.832 l 0,0 0,0 q -5.664,0 -10.145,1.525 l 0,0 0,0 q 1.619,5.131 1.619,10.955 l 0,0 0,0 q 0,14.145 -7.593,23.297 l 0,0 0,0 q -7.593,9.152 -17.427,9.152 l 0,0 0,0 q -6.721,0 -11.202,-4.507 l 0,0 0,0 q -4.481,-4.507 -4.481,-13.035 l 0,0 0,0 q 0,-8.528 5.663,-16.224 l 0,0 0,0 q 5.664,-7.696 13.879,-12.134 l 0,0 0,0 q -3.236,-9.291 -11.576,-9.291 l 0,0 -0.871,0 0,0 q -0.747,-3.605 0.373,-8.181 l 0,0 0,0 q 1.867,0 3.361,-0.416 l 0,0 z m -24.148,-15.115 0,0 0,0 q 0,-2.635 -0.56,-3.883 l 0,0 0,0 q -0.56,-1.248 -2.427,-3.605 l 0,0 0.124,-0.971 0,0 q 6.597,-4.299 16.431,-4.299 l 0,0 0,0 q 3.858,0 5.725,0.693 l 0,0 0,0 q 0.623,1.387 0.623,5.894 l 0,0 0,0 q 0,4.507 -6.411,33.419 l 0,0 0,0 q -6.41,28.913 -7.53,43.057 l 0,0 0,0 q -7.344,2.358 -16.306,2.358 l 0,0 0,0 q -2.116,0 -3.112,-0.416 l 0,0 0,0 q 0.622,-8.736 7.033,-36.332 l 0,0 0,0 q 6.41,-27.595 6.41,-35.915 z m 26.015,67.116 0,0 0,0 q 3.361,0 5.975,-6.864 l 0,0 0,0 q 2.614,-6.864 2.614,-15.462 l 0,0 -0.125,-2.357 0,0 q -4.605,1.941 -8.775,7.072 l 0,0 0,0 q -4.17,5.131 -4.17,10.955 l 0,0 0,0 q 0,3.467 1.431,5.061 l 0,0 0,0 q 1.432,1.595 3.05,1.595 z"
     vector-effect="non-scaling-stroke"
     stroke-miterlimit="3"
     id="path15"
     inkscape:connector-curvature="0"
     style="fill:#ffffff;fill-rule:evenodd;stroke:#16163e;stroke-width:2;stroke-linecap:square;stroke-linejoin:miter;stroke-miterlimit:3" />
</svg>
